<svg xmlns="http://www.w3.org/2000/svg" viewBox="0 0 278.72 93"><defs><style>.cls-1{fill:#fff;}.cls-2{fill:#fc0;}</style></defs><title>Bwin logo</title><g id="Слой_2" data-name="Слой 2"><g id="Isolation_Mode" data-name="Isolation Mode"><polygon class="cls-1" points="184.43 31.23 169.63 91.42 193.66 91.42 209.05 28.7 184.43 31.23"/><path class="cls-1" d="M263.64,28.58c-7.16-.71-18.33,1.5-23.86,5.72a27.78,27.78,0,0,0-1-6L217.47,31c.84,5.94,0,12.52-2.07,21.4l-9.56,39h24l9.83-39.89c2.41-3.47,6.24-5.79,9.47-5.79,4,0,5,2.93,3.74,7.74l-9.26,37.92h24L278,50.22C280.49,39.09,276.88,29.83,263.64,28.58Z"/><path class="cls-2" d="M213,11.71C213,5.25,207.36,0,200.15,0s-13.38,5.25-13.38,11.71,5.9,11.73,13,11.73c7.34,0,13.24-5.27,13.24-11.73Z"/><path class="cls-1" d="M155.38,29.35l-7.6,17.56c-2.81,6.6-5.28,12.81-7.44,18.9L140,29.34H118.37l-18,36.77,1.94-37.62-23.84,3,4.83,59.93h21.12s16-32.34,17.42-36.14l.21,36.08h21.68l35.77-62.06H155.38Z"/><path class="cls-1" d="M52.61,27.79A28.42,28.42,0,0,0,38.95,31,114.8,114.8,0,0,0,43.79,7.54h0A48.11,48.11,0,0,0,43.9,2L18.73,5.16c.28,4-.31,10.42-3.54,24.06L3,79.51c-.56,2.41-1.93,6.94-3,8.66A89.13,89.13,0,0,0,30.65,93c7.87,0,14.09-1.45,20.44-5.17C62,81.44,68.73,70,71.52,58.87,76.73,38,68.21,27.79,52.61,27.79ZM46.25,59.92C43.5,71.5,39.9,76.65,33.83,76.65a9.85,9.85,0,0,1-5.66-1.45l6.62-27.55a10.3,10.3,0,0,1,7-3C47.26,44.63,49.15,47.64,46.25,59.92Z"/><path class="cls-2" d="M230.14,7.23a3.09,3.09,0,0,0-1.59-.41,3.34,3.34,0,0,0-1.76.59,9.42,9.42,0,0,0-2.21,2.27l-2.9,13.7h-5.48l2.94-13.82a14.53,14.53,0,0,0,.43-3.37,8.44,8.44,0,0,0-.35-2.43l5.07-2a6.7,6.7,0,0,1,.43,1.51,5.87,5.87,0,0,1,.06,1.88,14.39,14.39,0,0,1,2.84-2.31,5.73,5.73,0,0,1,3-.88,4.47,4.47,0,0,1,.94.08,4.39,4.39,0,0,1,.94.37Z"/><path class="cls-2" d="M248.13,17.94a8.38,8.38,0,0,0-.1,2.29,4.45,4.45,0,0,0,.55,2l-4.74,1.88a6.48,6.48,0,0,1-.63-1.31,6.39,6.39,0,0,1-.35-1.47,12.73,12.73,0,0,1-2.7,1.84,7.24,7.24,0,0,1-3.35.78A5.63,5.63,0,0,1,233,22.77a3.89,3.89,0,0,1-1.33-3.11,13.63,13.63,0,0,1,.08-1.37,18.43,18.43,0,0,1,.33-1.94l2.82-13.41,5.64-1L237.7,15.37a14,14,0,0,0-.31,1.59,9.93,9.93,0,0,0-.1,1.23,1.64,1.64,0,0,0,.41,1.15,1.2,1.2,0,0,0,.9.45,3.11,3.11,0,0,0,1.29-.31,7.22,7.22,0,0,0,1.29-.76,7.06,7.06,0,0,0,1.1-1,9.69,9.69,0,0,0,.82-1L246,3.06,251.52,2Z"/></g></g></svg>